<svg width="48" height="48" viewBox="0 0 48 48" fill="none" xmlns="http://www.w3.org/2000/svg">
<g filter="url(#filter0_d_1527_16497)">
<path d="M42.4997 24.0023C42.4997 13.7848 34.2177 5.50212 24.0003 5.50195C13.7827 5.50195 5.5 13.7847 5.5 24.0023C5.50016 34.2197 13.7828 42.5017 24.0003 42.5017C24.8223 42.5016 25.6623 42.1188 26.3558 41.4253L41.4234 26.3577C42.1168 25.6643 42.4996 24.8242 42.4997 24.0023ZM45.4997 24.0023C45.4996 25.7721 44.6829 27.3404 43.5445 28.4788L28.4769 43.5464C27.3384 44.6849 25.7701 45.5016 24.0003 45.5017C12.126 45.5017 2.50016 35.8765 2.5 24.0023C2.5 12.1278 12.1259 2.50195 24.0003 2.50195C35.8746 2.50212 45.4997 12.1279 45.4997 24.0023Z" fill="#BCBCBC"/>
<path d="M16.7948 31.1108C17.2881 30.4453 18.2278 30.3056 18.8933 30.7989C20.3493 31.878 22.1091 32.5044 24 32.5044C24.8284 32.5044 25.5 33.176 25.5 34.0044C25.4998 34.8327 24.8283 35.5044 24 35.5044C21.4309 35.5044 19.0507 34.6502 17.1067 33.2094C16.4411 32.7161 16.3015 31.7763 16.7948 31.1108Z" fill="#BCBCBC"/>
<path d="M30 24C31.1046 24 32 22.6569 32 21C32 19.3431 31.1046 18 30 18C28.8954 18 28 19.3431 28 21C28 22.6569 28.8954 24 30 24Z" fill="#BCBCBC"/>
<path d="M18 24C19.1046 24 20 22.6569 20 21C20 19.3431 19.1046 18 18 18C16.8954 18 16 19.3431 16 21C16 22.6569 16.8954 24 18 24Z" fill="#BCBCBC"/>
<path d="M44.0003 25.5C38.2909 25.5 35.8165 25.5217 33.8717 26.2023C32.0994 26.8225 30.4895 27.8339 29.1617 29.1617C27.8339 30.4895 26.8225 32.0994 26.2023 33.8717H26.2014C25.521 35.8143 25.5 38.2886 25.5 44.0003H22.5C22.5 38.5402 22.4784 35.4256 23.3699 32.8802C24.139 30.6825 25.3933 28.6861 27.0397 27.0397C28.6861 25.3933 30.6825 24.139 32.8802 23.3699C35.4274 22.4785 38.5418 22.5 44.0003 22.5V25.5Z" fill="#BCBCBC"/>
</g>
<defs>
<filter id="filter0_d_1527_16497" x="-1" y="0" width="50" height="50" filterUnits="userSpaceOnUse" color-interpolation-filters="sRGB">
<feFlood flood-opacity="0" result="BackgroundImageFix"/>
<feColorMatrix in="SourceAlpha" type="matrix" values="0 0 0 0 0 0 0 0 0 0 0 0 0 0 0 0 0 0 127 0" result="hardAlpha"/>
<feOffset dy="1"/>
<feGaussianBlur stdDeviation="0.5"/>
<feComposite in2="hardAlpha" operator="out"/>
<feColorMatrix type="matrix" values="0 0 0 0 0 0 0 0 0 0 0 0 0 0 0 0 0 0 0.15 0"/>
<feBlend mode="normal" in2="BackgroundImageFix" result="effect1_dropShadow_1527_16497"/>
<feBlend mode="normal" in="SourceGraphic" in2="effect1_dropShadow_1527_16497" result="shape"/>
</filter>
</defs>
</svg>
