<svg width="116" height="61" viewBox="0 0 116 61" fill="none" xmlns="http://www.w3.org/2000/svg">
<g filter="url(#filter0_d_1494_16589)">
<mask id="path-1-inside-1_1494_16589" fill="white">
<path d="M86.4111 1C99.6069 1.00014 110.305 11.6977 110.305 24.8936C110.305 38.0893 99.6069 48.787 86.4111 48.7871L24.8936 48.7871C23.0255 48.7871 21.2075 48.5715 19.4629 48.166L9.83301 55.2227C9.11556 55.7483 8.15579 55.0036 8.35644 54.0771L10.5391 43.9951C4.74632 39.6352 1.00007 32.7021 1 24.8936C1 11.6976 11.6976 1 24.8936 1L86.4111 1Z"/>
</mask>
<path d="M86.4111 1C99.6069 1.00014 110.305 11.6977 110.305 24.8936C110.305 38.0893 99.6069 48.787 86.4111 48.7871L24.8936 48.7871C23.0255 48.7871 21.2075 48.5715 19.4629 48.166L9.83301 55.2227C9.11556 55.7483 8.15579 55.0036 8.35644 54.0771L10.5391 43.9951C4.74632 39.6352 1.00007 32.7021 1 24.8936C1 11.6976 11.6976 1 24.8936 1L86.4111 1Z" fill="white"/>
<path d="M86.4111 1L86.4112 -2L86.4111 -2L86.4111 1ZM110.305 24.8936L113.305 24.8936L113.305 24.8936L110.305 24.8936ZM86.4111 48.7871L86.4111 51.7871L86.4112 51.7871L86.4111 48.7871ZM19.4629 48.166L20.142 45.2439L18.8006 44.9321L17.6897 45.7462L19.4629 48.166ZM9.83301 55.2227L11.6061 57.6426L11.6062 57.6425L9.83301 55.2227ZM8.35644 54.0771L11.2885 54.7122L11.2885 54.7119L8.35644 54.0771ZM10.5391 43.9951L13.4711 44.6299L13.8775 42.753L12.3431 41.5982L10.5391 43.9951ZM1 24.8936L-2 24.8936L-2 24.8936L1 24.8936ZM86.4111 1L86.4111 4C97.9501 4.00012 107.305 13.3546 107.305 24.8936L110.305 24.8936L113.305 24.8936C113.305 10.0408 101.264 -1.99985 86.4112 -2L86.4111 1ZM110.305 24.8936L107.305 24.8935C107.305 36.4324 97.95 45.787 86.4111 45.7871L86.4111 48.7871L86.4112 51.7871C101.264 51.787 113.305 39.7461 113.305 24.8936L110.305 24.8936ZM86.4111 48.7871L86.4111 45.7871L24.8936 45.7871L24.8936 48.7871L24.8936 51.7871L86.4111 51.7871L86.4111 48.7871ZM24.8936 48.7871L24.8936 45.7871C23.2571 45.7871 21.6669 45.5983 20.142 45.2439L19.4629 48.166L18.7837 51.0881C20.7481 51.5447 22.794 51.7871 24.8936 51.7871L24.8936 48.7871ZM19.4629 48.166L17.6897 45.7462L8.05978 52.8028L9.83301 55.2227L11.6062 57.6425L21.2361 50.5859L19.4629 48.166ZM9.83301 55.2227L8.05995 52.8027C8.94424 52.1548 10.0045 52.3703 10.5894 52.8242C11.1422 53.2531 11.447 53.9802 11.2885 54.7122L8.35644 54.0771L5.42443 53.4421C5.06523 55.1005 5.74957 56.6632 6.91144 57.5647C8.10546 58.4911 10.0043 58.8162 11.6061 57.6426L9.83301 55.2227ZM8.35644 54.0771L11.2885 54.7119L13.4711 44.6299L10.5391 43.9951L7.60698 43.3604L5.42437 53.4424L8.35644 54.0771ZM10.5391 43.9951L12.3431 41.5982C7.27081 37.7805 4.00006 31.7195 4 24.8935L1 24.8936L-2 24.8936C-1.99992 33.6847 2.22183 41.4899 8.73499 46.3921L10.5391 43.9951ZM1 24.8936L4 24.8936C4 13.3545 13.3545 4 24.8936 4L24.8936 1L24.8936 -2C10.0408 -2 -2 10.0408 -2 24.8936L1 24.8936ZM24.8936 1L24.8936 4L86.4111 4L86.4111 1L86.4111 -2L24.8936 -2L24.8936 1Z" fill="#9FC7FF" mask="url(#path-1-inside-1_1494_16589)"/>
</g>
<defs>
<filter id="filter0_d_1494_16589" x="0" y="0" width="115.305" height="60.3965" filterUnits="userSpaceOnUse" color-interpolation-filters="sRGB">
<feFlood flood-opacity="0" result="BackgroundImageFix"/>
<feColorMatrix in="SourceAlpha" type="matrix" values="0 0 0 0 0 0 0 0 0 0 0 0 0 0 0 0 0 0 127 0" result="hardAlpha"/>
<feOffset dx="2" dy="2"/>
<feGaussianBlur stdDeviation="1.5"/>
<feComposite in2="hardAlpha" operator="out"/>
<feColorMatrix type="matrix" values="0 0 0 0 0 0 0 0 0 0 0 0 0 0 0 0 0 0 0.15 0"/>
<feBlend mode="normal" in2="BackgroundImageFix" result="effect1_dropShadow_1494_16589"/>
<feBlend mode="normal" in="SourceGraphic" in2="effect1_dropShadow_1494_16589" result="shape"/>
</filter>
</defs>
</svg>
