<svg width="64" height="64" viewBox="0 0 64 64" fill="none" xmlns="http://www.w3.org/2000/svg">
<path d="M56.665 32.003C56.665 18.3797 45.6223 7.33615 31.9991 7.33594C18.3757 7.33594 7.33203 18.3796 7.33203 32.003C7.33225 45.6263 18.3758 56.6689 31.9991 56.6689C33.0951 56.6687 34.2152 56.1583 35.1397 55.2338L55.2299 35.1436C56.1544 34.2191 56.6648 33.099 56.665 32.003ZM60.665 32.003C60.6648 34.3627 59.5759 36.4538 58.058 37.9718L37.9678 58.0619C36.4499 59.5798 34.3588 60.6688 31.9991 60.6689C16.1667 60.6689 3.33225 47.8354 3.33203 32.003C3.33203 16.1704 16.1665 3.33594 31.9991 3.33594C47.8315 3.33615 60.665 16.1706 60.665 32.003Z" fill="#FFFAF4"/>
<path d="M22.3914 41.4811C23.0491 40.5937 24.3021 40.4075 25.1895 41.0652C27.1308 42.5041 29.4772 43.3393 31.9984 43.3393C33.1029 43.3393 33.9984 44.2347 33.9984 45.3393C33.9981 46.4436 33.1028 47.3393 31.9984 47.3393C28.5729 47.3393 25.3993 46.2003 22.8072 44.2792C21.9199 43.6214 21.7337 42.3685 22.3914 41.4811Z" fill="#FFFAF4"/>
<path d="M39.9987 32C41.4715 32 42.6654 30.2091 42.6654 28C42.6654 25.7909 41.4715 24 39.9987 24C38.5259 24 37.332 25.7909 37.332 28C37.332 30.2091 38.5259 32 39.9987 32Z" fill="#FFFAF4"/>
<path d="M24.0007 32C25.4734 32 26.6673 30.2091 26.6673 28C26.6673 25.7909 25.4734 24 24.0007 24C22.5279 24 21.334 25.7909 21.334 28C21.334 30.2091 22.5279 32 24.0007 32Z" fill="#FFFAF4"/>
<path d="M58.6652 33.9996C51.0526 33.9996 47.7534 34.0285 45.1604 34.9359C42.7972 35.7629 40.6507 37.1114 38.8803 38.8818C37.1099 40.6522 35.7614 42.7987 34.9344 45.1618H34.9332C34.026 47.7519 33.9981 51.0509 33.9981 58.6666H29.9981C29.9981 51.3864 29.9692 47.2337 31.158 43.8397C32.1834 40.9095 33.8558 38.2476 36.051 36.0525C38.2462 33.8573 40.9081 32.1849 43.8383 31.1594C47.2345 29.9709 51.3872 29.9996 58.6652 29.9996V33.9996Z" fill="#FFFAF4"/>
</svg>
