<svg width="76" height="27" viewBox="0 0 76 27" fill="none" xmlns="http://www.w3.org/2000/svg">
<path d="M59.598 25.9999C59.4033 25.9999 59.246 25.91 59.1261 25.7302C58.9912 25.5504 58.9238 25.3182 58.9238 25.0335C58.9238 24.4043 59.201 24.0896 59.7553 24.0896C60.8341 24.0896 61.8229 23.7151 62.7219 22.966C63.6208 22.2019 64.4224 21.1156 65.1265 19.7073V8.17832C65.1265 6.68008 65.4412 5.52644 66.0704 4.71739C66.7147 3.90834 67.6436 3.51131 68.8572 3.52629C69.9659 3.54127 70.8273 3.96078 71.4416 4.78481C72.0709 5.60884 72.3855 6.68008 72.3855 7.99854C72.3855 10.0361 71.8012 12.2985 70.6326 14.7856C70.8124 14.7706 70.9847 14.7631 71.1495 14.7631C72.1233 14.7631 72.9024 15.0552 73.4867 15.6396C74.071 16.2239 74.3632 16.9955 74.3632 17.9543C74.3632 18.7484 74.0785 19.4451 73.5092 20.0444C72.9549 20.6437 72.2057 21.0932 71.2618 21.3928C71.5915 21.6026 71.8836 21.8573 72.1383 22.1569L72.8125 22.9435C73.1721 23.378 73.5017 23.6926 73.8014 23.8874C74.101 24.0672 74.498 24.2095 74.9925 24.3144C75.0973 24.599 75.1123 24.9137 75.0374 25.2583C74.9625 25.5879 74.8277 25.8351 74.6329 25.9999C74.1385 25.9999 73.674 25.8875 73.2395 25.6628C72.82 25.4231 72.3556 25.0485 71.8462 24.5391L70.8798 23.5503C70.4603 23.1308 70.1007 22.8161 69.8011 22.6064C69.5164 22.3816 69.1793 22.2318 68.7897 22.1569C68.4152 22.067 67.8908 22.0221 67.2166 22.0221C67.2016 22.2618 67.1941 22.5015 67.1941 22.7412V25.6853C67.0443 25.7302 66.8795 25.7677 66.6997 25.7976C66.5199 25.8276 66.3476 25.8426 66.1828 25.8426C65.8382 25.8426 65.4861 25.7901 65.1265 25.6853V23.1682C64.3924 24.1271 63.5459 24.8388 62.587 25.3032C61.6281 25.7677 60.6318 25.9999 59.598 25.9999ZM67.1267 8.15585V17.0105C68.1755 15.4223 68.977 13.8492 69.5314 12.291C70.1007 10.7328 70.3854 9.29451 70.3854 7.97606C70.3854 7.13705 70.243 6.5003 69.9584 6.06581C69.6887 5.61633 69.2917 5.3916 68.7673 5.3916C67.6736 5.3916 67.1267 6.31302 67.1267 8.15585ZM70.7899 16.5385C69.9958 16.5385 69.2991 16.8906 68.6998 17.5948C68.1155 18.2989 67.696 19.2278 67.4413 20.3815C67.696 20.4115 67.9882 20.4264 68.3178 20.4264C69.0969 20.4264 69.7936 20.3216 70.4078 20.1118C71.0221 19.9021 71.5016 19.6174 71.8462 19.2578C72.2057 18.8982 72.3855 18.4937 72.3855 18.0442C72.3855 17.5948 72.2357 17.2352 71.9361 16.9655C71.6514 16.6808 71.2693 16.5385 70.7899 16.5385Z" fill="#D73717"/>
<g clip-path="url(#clip0_862_14805)">
<path d="M29.1052 16.4478C28.9727 16.465 28.8577 16.4178 28.7603 16.3061C28.6526 16.1957 28.5862 16.0436 28.561 15.8499C28.5054 15.4218 28.6661 15.1832 29.0433 15.1342C29.7772 15.0387 30.4169 14.6964 30.9623 14.1072C31.5063 13.5077 32.7719 13.1561 32.361 11.6706L31.2901 3.83303C31.1575 2.81364 31.2695 2.00087 31.6261 1.39473C31.9929 0.787262 32.5898 0.434941 33.4168 0.337768C34.1725 0.249873 34.7957 0.459085 35.2866 0.965404C35.7876 1.4704 36.0965 2.17143 36.2131 3.06849C36.3934 4.45486 36.196 6.04584 35.6209 7.84141C35.5413 8.09001 34.8129 9.59938 34.925 9.5848C33.9902 11.5464 34.3789 10.2881 34.8282 10.634C35.2774 10.9799 38.3547 9.01496 38.4395 9.66737C38.5098 10.2076 38.3777 10.7068 38.0434 11.165C37.7192 11.6218 37.2493 11.9939 36.6336 12.2813C36.8764 12.3948 37.0977 12.5423 37.2975 12.7236L37.8259 13.1991C38.109 13.4629 38.3611 13.6479 38.5822 13.7539C38.802 13.8497 39.0847 13.9114 39.4304 13.939C39.5269 14.1234 39.5649 14.3362 39.5445 14.5773C39.5226 14.8081 39.4528 14.9883 39.3348 15.1176C38.9984 15.1614 38.6725 15.126 38.357 15.0116C38.0503 14.8856 37.7012 14.6718 37.3095 14.3703L36.5645 13.783C36.242 13.5347 35.9695 13.3524 35.7471 13.2362C35.5335 13.1085 35.2909 13.0364 35.0192 13.0199C34.7564 12.9918 34.3956 13.0076 33.9369 13.0673C33.9479 13.2317 33.964 13.3955 33.9853 13.5586L34.2457 15.5617C34.1478 15.6055 34.0389 15.6456 33.9193 15.6819C33.7996 15.7182 33.6837 15.7436 33.5715 15.7582C33.3371 15.7887 33.0929 15.7842 32.839 15.7446L32.6163 14.032C32.2016 14.7494 31.6886 15.3085 31.0773 15.7093C30.466 16.1102 29.8086 16.3563 29.1052 16.4478ZM32.649 3.64078L33.4324 9.66538C34.0054 8.49204 34.4116 7.35077 34.651 6.24156C34.9005 5.13102 34.9669 4.12722 34.8503 3.23016C34.776 2.6593 34.6229 2.23865 34.3907 1.96821C34.1675 1.68625 33.8774 1.56847 33.5207 1.61486C32.7765 1.71163 32.4859 2.38693 32.649 3.64078ZM34.2856 11.0679C33.7453 11.1382 34.8999 9.39163 34.5544 9.92376C34.2192 10.4546 34.0159 11.1237 33.9447 11.9312C34.1206 11.929 34.3207 11.9134 34.545 11.8842C35.0751 11.8153 35.5398 11.6823 35.9392 11.4852C36.3386 11.2882 36.6396 11.0521 36.8423 10.7769C37.0551 10.5005 35.5442 12.257 35.5045 11.9512C35.4647 11.6454 35.331 11.414 35.1032 11.257C34.8843 11.0885 34.6118 11.0255 34.2856 11.0679Z" fill="#111111"/>
<path d="M33.1922 11.8052L31.7255 2.71811L32.291 1.6857L33.8603 0.600508L35.3522 1.90962C35.3333 3.02645 35.32 5.44871 35.4181 6.20305C35.5162 6.9574 33.975 10.2521 33.1922 11.8052Z" fill="#111111" stroke="#111111" stroke-width="0.0513986"/>
</g>
<g clip-path="url(#clip1_862_14805)">
<path d="M32.5492 12.3736C32.4406 12.3603 32.3589 12.2993 32.3044 12.1908C32.2414 12.0812 32.2197 11.947 32.2392 11.7882C32.2823 11.437 32.4586 11.2804 32.7679 11.3184C33.3699 11.3923 33.9474 11.2511 34.5003 10.8946C35.0543 10.5298 35.5309 10.643 35.5077 9.38032L36.107 8.57688L36.8554 2.80736C36.9581 1.97129 37.2127 1.34907 37.6193 0.94071C38.0343 0.533373 38.5798 0.375462 39.256 0.466974C39.8737 0.551301 40.3257 0.844428 40.612 1.34636C40.9067 1.84931 41.0089 2.46866 40.9185 3.2044C40.7789 4.34146 40.2978 5.56389 39.4753 6.8717C39.3614 7.05276 38.5155 8.17545 38.5675 8.11344C37.4256 9.47964 37.7602 9.01421 38.0462 9.38032C38.3322 9.74642 41.4057 8.36052 41.34 8.8956C41.2856 9.33872 41.079 9.70799 40.7202 10.0034C40.3698 10.2999 39.921 10.4993 39.3737 10.6019C39.5433 10.7415 39.6889 10.9037 39.8105 11.0883L40.1328 11.5735C40.3037 11.8406 40.4661 12.0387 40.6199 12.1679C40.7748 12.2888 40.9866 12.3954 41.2554 12.4878C41.2944 12.6539 41.2812 12.8305 41.2158 13.0176C41.1514 13.1965 41.0592 13.3252 40.9392 13.4038C40.6633 13.3699 40.4118 13.2754 40.1848 13.1202C39.9671 12.9577 39.7336 12.7168 39.4842 12.3977L39.0127 11.7797C38.8073 11.5168 38.6283 11.3166 38.4754 11.179C38.332 11.0341 38.1541 10.9274 37.9419 10.8589C37.739 10.7831 37.4495 10.7221 37.0732 10.6759C37.0484 10.8086 37.0278 10.9419 37.0114 11.0756L36.8097 12.7185C36.723 12.7333 36.6285 12.7429 36.5261 12.7473C36.4237 12.7518 36.3265 12.7483 36.2346 12.737C36.0423 12.7134 35.8494 12.66 35.6559 12.5769L35.8284 11.1723C35.353 11.657 34.8319 11.9962 34.2649 12.1897C33.698 12.3831 33.1261 12.4445 32.5492 12.3736ZM37.9731 2.93187L37.3664 7.87305C38.0605 7.05867 38.6156 6.23572 39.0317 5.40419C39.4562 4.57368 39.7136 3.79056 39.8039 3.05482C39.8614 2.58662 39.8256 2.22153 39.6965 1.95957C39.5768 1.69027 39.3707 1.53765 39.078 1.50172C38.4677 1.42678 38.0994 1.9035 37.9731 2.93187ZM37.7576 9.16015C37.3145 9.10574 37.57 8.9801 37.1873 9.33199C36.813 9.68491 37.5322 9.14944 37.311 9.77577C37.4511 9.80994 37.6131 9.83832 37.7971 9.8609C38.2318 9.91428 38.6278 9.90349 38.9849 9.82853C39.3421 9.75357 39.6291 9.62757 39.8461 9.45052C40.0714 9.2745 38.5141 10.3605 38.5449 10.1097C38.5757 9.85891 38.5167 9.64798 38.368 9.47696C38.2286 9.2986 38.0252 9.193 37.7576 9.16015Z" fill="#111111"/>
<path d="M36.7383 9.52293L37.4272 2.01186L38.0865 1.30779L39.5532 0.766509L40.4704 2.1097C40.2276 2.99222 39.7232 4.91194 39.6472 5.53063C39.5713 6.14933 37.6763 8.44995 36.7383 9.52293Z" fill="#111111" stroke="#111111" stroke-width="0.0421175"/>
</g>
<path d="M35.8049 8.8252C36.1412 7.86798 36.1248 7.58918 36.3355 6.81689L37.0434 9.02709L35.9469 9.02709C35.8428 9.02709 35.7704 8.92345 35.8049 8.8252Z" fill="#111111"/>
<path d="M50.0072 26C49.8125 26 49.6477 25.9101 49.5128 25.7303C49.378 25.5505 49.3105 25.3333 49.3105 25.0786C49.3105 24.7639 49.3855 24.5242 49.5353 24.3594C49.6701 24.1796 49.8574 24.0897 50.0971 24.0897C50.8013 24.0897 51.513 23.9998 52.2321 23.8201C52.9363 23.6403 53.6929 23.3181 54.502 22.8537C54.0525 21.8648 53.8277 20.7561 53.8277 19.5276C53.8277 18.6137 54 17.8046 54.3446 17.1004C54.7042 16.3813 55.1837 15.812 55.7829 15.3924C56.3972 14.9729 57.0864 14.7632 57.8505 14.7632C58.4948 14.7632 59.0716 14.913 59.581 15.2127C60.0904 15.5123 60.4949 15.9168 60.7946 16.4262C61.0942 16.9356 61.244 17.5125 61.244 18.1567C61.244 19.1156 60.9069 20.0295 60.2327 20.8985C59.5585 21.7675 58.5772 22.584 57.2887 23.3481C57.873 23.8425 58.682 24.0897 59.7158 24.0897C59.9106 24.0897 60.0679 24.1796 60.1878 24.3594C60.3226 24.5392 60.39 24.7789 60.39 25.0786C60.39 25.3632 60.3151 25.588 60.1653 25.7528C60.0305 25.9176 59.8432 26 59.6035 26C58.7644 26 57.9929 25.8651 57.2887 25.5955C56.5845 25.3108 56.0077 24.9213 55.5582 24.4268C53.6405 25.4756 51.7901 26 50.0072 26ZM55.7605 19.4602C55.7605 20.449 55.9403 21.2431 56.2998 21.8424C58.2925 20.6887 59.2888 19.4602 59.2888 18.1567C59.2888 17.6773 59.1615 17.3027 58.9068 17.033C58.6521 16.7633 58.3 16.6285 57.8505 16.6285C57.2512 16.6285 56.7493 16.8982 56.3448 17.4375C55.9552 17.9619 55.7605 18.6361 55.7605 19.4602Z" fill="#D73717"/>
<path d="M42.2473 24.1122C42.6218 23.9923 43.0863 23.8201 43.6406 23.5953C44.195 23.3556 44.7194 23.1084 45.2138 22.8537C44.7194 21.8948 44.4722 20.7861 44.4722 19.5276C44.4722 18.5987 44.6445 17.7821 44.989 17.078C45.3336 16.3588 45.8131 15.797 46.4274 15.3924C47.0416 14.9729 47.7383 14.7632 48.5174 14.7632C49.1766 14.7632 49.7609 14.9205 50.2703 15.2351C50.7797 15.5348 51.1768 15.9543 51.4615 16.4937C51.7461 17.033 51.8884 17.6548 51.8884 18.359C51.8285 20.1569 50.555 21.8574 48.0679 23.4605C48.5624 23.88 49.2515 24.0897 50.1355 24.0897C50.3453 24.0897 50.5101 24.1796 50.6299 24.3594C50.7498 24.5392 50.8097 24.7789 50.8097 25.0786C50.8097 25.3632 50.7423 25.588 50.6075 25.7528C50.4726 25.9176 50.2778 26 50.0231 26C49.2441 26 48.5174 25.8651 47.8432 25.5955C47.184 25.3108 46.6521 24.9213 46.2476 24.4268C45.6932 24.7115 45.1014 24.9887 44.4722 25.2584C43.8579 25.5131 43.3335 25.7078 42.899 25.8427C42.6593 25.6329 42.487 25.3857 42.3821 25.101C42.2623 24.8164 42.2173 24.4868 42.2473 24.1122ZM46.4274 19.3478C46.4274 20.4116 46.5997 21.2955 46.9443 21.9997C47.978 21.3105 48.7272 20.6962 49.1916 20.1569C49.6561 19.6025 49.9033 19.0032 49.9332 18.359C49.9332 17.8196 49.7984 17.4001 49.5287 17.1004C49.274 16.7858 48.9144 16.6285 48.45 16.6285C47.8657 16.6285 47.3787 16.8907 46.9892 17.4151C46.6146 17.9395 46.4274 18.5837 46.4274 19.3478Z" fill="#D73717"/>
<path d="M37.4395 9.34668C39.3719 9.34669 40.8629 9.77667 41.8945 10.6543H41.8936C42.9418 11.533 43.4619 12.7576 43.4619 14.3135C43.4619 16.0039 42.8966 17.3326 41.7588 18.2861C40.6393 19.2369 39.1283 19.707 37.2373 19.707H34.9971C34.7696 19.7071 34.585 19.8916 34.585 20.1191V25.292C34.5848 25.572 34.3996 25.8328 34.1113 25.8877C33.8772 25.9322 33.6457 25.9551 33.417 25.9551C33.1759 25.9551 32.9453 25.9332 32.7266 25.8906C32.444 25.8355 32.2705 25.5771 32.2705 25.3066V9.9834C32.2705 9.63173 32.5556 9.34668 32.9072 9.34668H37.4395ZM34.9971 11.5039C34.7696 11.504 34.585 11.6886 34.585 11.916V17.1602C34.5851 17.3876 34.7697 17.5722 34.9971 17.5723H37.0352C38.3855 17.5722 39.3901 17.2969 40.0664 16.7646C40.7375 16.2363 41.08 15.4485 41.0801 14.3809C41.0801 13.4096 40.7768 12.6982 40.1846 12.2266C39.5874 11.751 38.6785 11.5039 37.4395 11.5039H34.9971Z" fill="#111111" stroke="#111111" stroke-width="0.224736"/>
<path d="M32.9199 18.6435L33.3319 9.84131L39.1376 10.965L42.1341 12.9127L42.7334 16.4336L39.4747 18.2315L32.9199 18.6435Z" fill="#111111"/>
<path d="M17.3403 24.0673C17.8197 24.0673 18.2917 23.835 18.7561 23.3706C19.2356 22.9061 19.6401 22.2844 19.9697 21.5053C19.9248 21.1906 19.9023 20.861 19.9023 20.5164C19.9023 19.4227 20.112 18.4489 20.5316 17.5949C20.9511 16.7259 21.5279 16.0367 22.262 15.5273C23.0111 15.0179 23.8726 14.7632 24.8465 14.7632C25.5656 14.7632 26.2249 14.913 26.8242 15.2127C27.4384 15.4973 27.9104 15.8869 28.24 16.3813C28.1501 16.7109 27.9853 16.9881 27.7456 17.2128C27.5059 17.4375 27.2362 17.6024 26.9365 17.7072C26.4721 17.033 25.7904 16.6959 24.8914 16.6959C24.0225 16.6959 23.3183 17.0405 22.7789 17.7297C22.2545 18.4039 21.9923 19.2954 21.9923 20.4041C21.9923 21.5427 22.2845 22.4417 22.8688 23.1009C23.4531 23.7451 24.2547 24.0673 25.2735 24.0673C26.4571 24.0673 27.5658 23.5204 28.5996 22.4267C29.064 22.6964 29.4985 23.1084 29.903 23.6627C28.7344 25.2209 27.1613 26 25.1836 26C24.2247 26 23.3707 25.8127 22.6216 25.4382C21.8875 25.0636 21.2957 24.5392 20.8462 23.865C19.9173 25.2883 18.6962 26 17.183 26C16.9882 26 16.8309 25.9101 16.711 25.7303C16.5912 25.5505 16.5312 25.3183 16.5312 25.0336C16.5312 24.3894 16.8009 24.0673 17.3403 24.0673Z" fill="#D73717"/>
<path d="M12.0857 25.7747C11.7411 25.6549 11.4415 25.4751 11.1868 25.2354C10.9471 24.9807 10.7898 24.681 10.7148 24.3364C10.9845 24.0817 11.2992 23.7596 11.6587 23.37C12.0183 22.9805 12.3704 22.516 12.715 21.9767C13.0596 21.4223 13.3443 20.8006 13.569 20.1114C13.8087 19.4222 13.9286 18.6506 13.9286 17.7966V15.0773C14.0634 15.0323 14.2207 14.9949 14.4005 14.9649C14.5803 14.9349 14.7676 14.92 14.9624 14.92C15.307 14.92 15.6441 14.9724 15.9737 15.0773V21.7519C15.9737 22.576 16.0785 23.1678 16.2883 23.5274C16.513 23.8869 16.8651 24.0667 17.3446 24.0667C17.5543 24.0667 17.7116 24.1566 17.8165 24.3364C17.9364 24.5162 17.9963 24.7559 17.9963 25.0556C17.9963 25.2953 17.9289 25.5125 17.794 25.7073C17.6742 25.9021 17.4719 25.9995 17.1872 25.9995C15.5092 25.9995 14.4754 25.1979 14.0859 23.5948C13.4566 24.5537 12.7899 25.2803 12.0857 25.7747ZM14.9848 11.8411C14.5653 11.8411 14.2057 11.6913 13.9061 11.3916C13.6064 11.092 13.4566 10.7324 13.4566 10.3129C13.4566 9.8634 13.599 9.49633 13.8836 9.21167C14.1833 8.927 14.5503 8.78467 14.9848 8.78467C15.4343 8.78467 15.8014 8.927 16.086 9.21167C16.3707 9.49633 16.513 9.8634 16.513 10.3129C16.513 10.7474 16.3632 11.1144 16.0636 11.4141C15.7789 11.6987 15.4193 11.8411 14.9848 11.8411Z" fill="#D73717"/>
<path d="M5.13086 9.42188C7.05324 9.42189 8.52404 9.8493 9.53711 10.7109C10.5657 11.5732 11.0791 12.776 11.0791 14.3135C11.0791 15.9856 10.5207 17.2924 9.40234 18.2295C8.30006 19.1657 6.80755 19.6318 4.92871 19.6318H2.68848C2.41963 19.6319 2.20215 19.8503 2.20215 20.1191V25.292C2.20199 25.5406 2.03771 25.7671 1.78906 25.8145C1.55924 25.8582 1.33229 25.8799 1.1084 25.8799C0.871726 25.8799 0.646176 25.859 0.432617 25.8174C0.190689 25.7702 0.0371094 25.5473 0.0371094 25.3066V9.9834C0.0371094 9.6731 0.288337 9.42188 0.598633 9.42188H5.13086ZM2.68848 11.4287C2.41966 11.4288 2.20219 11.6472 2.20215 11.916V17.1602C2.20226 17.4289 2.4197 17.6464 2.68848 17.6465H4.72656C6.08557 17.6464 7.10983 17.3703 7.80469 16.8232C8.49767 16.2776 8.84665 15.4657 8.84668 14.3809C8.84668 13.3929 8.53631 12.6573 7.92188 12.168C7.30583 11.6775 6.37762 11.4287 5.13086 11.4287H2.68848Z" fill="#D73717" stroke="#D73717" stroke-width="0.074912"/>
<defs>
<clipPath id="clip0_862_14805">
<path d="M31.0168 2.05879C30.918 1.29875 31.454 0.602501 32.2141 0.503672L35.103 0.128027C35.6468 0.057306 36.1451 0.440879 36.2158 0.984763L37.0123 7.11046C37.3582 9.77048 35.4822 12.2072 32.8222 12.5531C32.5828 12.5843 32.3635 12.4154 32.3324 12.176L31.0168 2.05879Z" fill="white"/>
</clipPath>
<clipPath id="clip1_862_14805">
<path d="M37.0001 1.34452C37.0766 0.721155 37.644 0.277868 38.2674 0.354407L40.7222 0.655818C41.1211 0.704797 41.4047 1.06787 41.3558 1.46678L40.8554 5.54179C40.5875 7.72345 38.6018 9.27488 36.4201 9.00701C36.2238 8.9829 36.0842 8.80418 36.1083 8.60783L37.0001 1.34452Z" fill="white"/>
</clipPath>
</defs>
</svg>
